<svg width="106" height="84" viewBox="0 0 106 84" fill="none" xmlns="http://www.w3.org/2000/svg">
<rect width="106" height="84" fill="#EEEEEE"/>
<path d="M40.3275 34.213L53.6015 50.2488H27.0535L40.3275 34.213Z" fill="#E2E2E2"/>
<path d="M58.7524 27L77.9437 50.1844H39.5611L58.7524 27Z" fill="#E2E2E2"/>
<path d="M52.6406 52C45.6707 52 40 57.6707 40 64.6406C40 71.6106 45.6707 77.2813 52.6406 77.2813C59.6106 77.2813 65.2813 71.6106 65.2813 64.6406C65.2813 57.6707 59.6106 52 52.6406 52ZM57.5024 65.613H53.613V69.5024C53.613 69.7603 53.5105 70.0076 53.3282 70.19C53.1458 70.3723 52.8985 70.4748 52.6406 70.4748C52.3827 70.4748 52.1354 70.3723 51.9531 70.19C51.7707 70.0076 51.6683 69.7603 51.6683 69.5024V65.613H47.7788C47.521 65.613 47.2736 65.5105 47.0913 65.3282C46.9089 65.1458 46.8065 64.8985 46.8065 64.6406C46.8065 64.3827 46.9089 64.1354 47.0913 63.9531C47.2736 63.7707 47.521 63.6683 47.7788 63.6683H51.6683V59.7788C51.6683 59.521 51.7707 59.2736 51.9531 59.0913C52.1354 58.9089 52.3827 58.8065 52.6406 58.8065C52.8985 58.8065 53.1458 58.9089 53.3282 59.0913C53.5105 59.2736 53.613 59.521 53.613 59.7788V63.6683H57.5024C57.7603 63.6683 58.0076 63.7707 58.19 63.9531C58.3723 64.1354 58.4748 64.3827 58.4748 64.6406C58.4748 64.8985 58.3723 65.1458 58.19 65.3282C58.0076 65.5105 57.7603 65.613 57.5024 65.613Z" fill="#E2E2E2"/>
</svg>
